<svg xmlns="http://www.w3.org/2000/svg" viewBox="0 0 64 64"><defs><style>.cls-3{fill:#131313}</style></defs><rect id="BG-Color" width="64" height="64" rx="4" ry="4" style="fill:#da6ec4"/><g id="ExtentionIcons"><path d="M48 14H18a2 2 0 0 0-2 2v12h28a2 2 0 0 1 2 2h2a2 2 0 0 0 2-2V16a2 2 0 0 0-2-2m-4 10H22a2 2 0 0 1 0-4h22a2 2 0 0 1 0 4" style="opacity:.4;fill:#131313"/><path d="m51.731 47.93-4.833-4.827 2.655-2.692a.916.916 0 0 0-.324-1.505L34.33 33.161a1 1 0 0 0-.33-.062.94.94 0 0 0-.649.27.92.92 0 0 0-.208.979l5.746 14.917c.112.29.362.504.666.569q.095.012.19.006a.94.94 0 0 0 .649-.27l2.668-2.667 4.833 4.828c.17.175.405.272.649.269a.9.9 0 0 0 .648-.27l2.54-2.502a.92.92 0 0 0 0-1.297" class="cls-3"/><path d="M18 38a2 2 0 0 1 0-4h12.095a3.96 3.96 0 0 1 1.15-2.768 3.92 3.92 0 0 1 2.728-1.133H34l.065.001a4 4 0 0 1 1.344.261L46 34.446V30a2 2 0 0 0-2-2H14a2 2 0 0 0-2 2v12a2 2 0 0 0 2 2h19.646l-2.311-6z" class="cls-3"/></g></svg>