<svg xmlns="http://www.w3.org/2000/svg" viewBox="0 0 69.11 69.11"><g><g><rect width="69.11" height="69.11" style="fill:#c453a4"/><rect x="14.26" y="17.07" width="49.8" height="22.46" style="fill:#fff;opacity:0.5"/><polygon points="9.66 44.13 9.66 26.27 5.06 26.27 5.06 48.73 54.85 48.73 54.85 44.13 9.66 44.13" style="fill:#fff;opacity:0.5"/><path d="M48.69,59.54a1.45,1.45,0,0,1-1.06-.44l-7.9-7.89-4.36,4.36a1.53,1.53,0,0,1-1.06.44A1.55,1.55,0,0,1,34,56a1.51,1.51,0,0,1-1.09-.93L23.52,30.69a1.51,1.51,0,0,1,.34-1.6,1.53,1.53,0,0,1,1.06-.44,1.71,1.71,0,0,1,.54.1l24.35,9.39a1.5,1.5,0,0,1,.53,2.46L46,45l7.9,7.89a1.5,1.5,0,0,1,0,2.12L49.75,59.1A1.47,1.47,0,0,1,48.69,59.54Z" style="fill:#fff"/><path d="M24.92,30.15l24.36,9.39L43.85,45l9,9L48.69,58l-9-8.95-5.42,5.42L24.92,30.15m0-3a3,3,0,0,0-2.8,4.08l9.39,24.36a3,3,0,0,0,2.18,1.85,2.56,2.56,0,0,0,.62.07,3,3,0,0,0,2.12-.88l3.3-3.3,6.84,6.83a3,3,0,0,0,2.12.88h0a3,3,0,0,0,2.12-.88L54.93,56a3,3,0,0,0,0-4.24L48.1,45l3.3-3.31a3,3,0,0,0,.81-2.74,3,3,0,0,0-1.85-2.18L26,27.35a3.13,3.13,0,0,0-1.08-.2Z" style="fill:#c453a4"/></g></g></svg>